<svg xmlns="http://www.w3.org/2000/svg" width="630.69" height="540.048" viewBox="0 0 630.69 540.048">
  <g id="Group_1" data-name="Group 1" transform="translate(-456.078 -254.337)">
    <path id="path168" d="M726.466-444.032c14.5-6.06,33.792-2.175,48.665.007l.368.387c10.221,9.281-40.329,21.716-51.416,18.959-13.248-5.107-12.9-12.581,2.383-19.352" transform="translate(147 1028)" fill="#4348a5"/>
    <path id="path170" d="M694.168-506.167c4.609-18.509,47.077-14.284,59.6-9.969,16.943,6.037,20.524,25.659,18.2,43.524l-.036.753c-5.933,14.689-21.5,11.709-38.376,4.191-11.752-5.032-42.344-22.917-39.387-38.5" transform="translate(147 1028)" fill="#837dc6"/>
    <path id="path178" d="M789.585-441.184l.469-.928c-1.028-.591-15.368-.395-29.185.591-13.532.981-31.531,3.012-40.332,7.223l.447.953c16.293-7.767,66.906-8.393,68.6-7.839" transform="translate(147 1028)" fill="#a99dd6"/>
    <path id="path334" d="M769.877-697.049v1.248c0,9.471,7.389,17.151,16.512,17.151S802.9-686.33,802.9-695.8v-1.248H769.877" transform="translate(147 1028)" fill="#f59927"/>
    <path id="path338" d="M802.9-697.049v1.248c0,9.471,7.395,17.151,16.513,17.151s16.516-7.68,16.516-17.151v-1.248H802.9" transform="translate(147 1028)" fill="#fcfbfc"/>
    <path id="path456" d="M527.118-233.614H938.089c2.239,0,2.239-4.657,0-4.657H527.118c-2.24,0-2.24,4.657,0,4.657" transform="translate(147 1028)" fill="#352018"/>
    <path id="path458" d="M440.86-233.614h51.812c3,0,3-4.657,0-4.657H440.86c-3,0-3,4.657,0,4.657" transform="translate(147 1028)" fill="#352018"/>
    <path id="path460" d="M311.331-233.614h98.441c3,0,3-4.657,0-4.657H311.331c-3,0-3,4.657,0,4.657" transform="translate(147 1028)" fill="#352018"/>
    <path id="path462" d="M788.786-388.052s19.705,12.2,27.047,44.4,29.783,57.636,34.5,61.061l-11.472,20.5-10.972-2.241,1.772-9.672-56.7-93.9,15.827-20.145" transform="translate(147 1028)" fill="#f8a47d"/>
    <path id="path464" d="M829.211-274.751l-56.252-93.156,12.479-15.883c2.117-.8,4.145-1.573,6.016-2.284a65.593,65.593,0,0,1,14.589,17.416c-5.672,3.043-14.7,7.443-22.563,9.26l45.731,84.646" transform="translate(147 1028)" fill="#f6855d"/>
    <path id="path466" d="M663.334-376.878s-1.021,23.151-25.536,45.284-35.749,54.131-36.431,59.924H577.875l-3.4-10.671,9.305-3.179,54.251-95.33,25.308,3.972" transform="translate(147 1028)" fill="#f8a47d"/>
    <path id="path468" d="M601.5-272.491a.127.127,0,0,0,0-.021c1.488-7.56,12.785-37.86,36.293-59.081,24.515-22.133,25.536-45.284,25.536-45.284h0s-1.021,23.151-25.536,45.284c-23.548,21.257-34.836,51.613-36.295,59.1" transform="translate(147 1028)" fill="#fcd3c0"/>
    <path id="path470" d="M601.505-272.513c.739-26.287,27.681-59.371,38.679-66.312A21.972,21.972,0,0,0,650.4-358.475c-8.38-1.812-15.5-8.121-18.667-11.313l6.295-11.061,25.308,3.972s-1.021,23.151-25.536,45.284c-23.508,21.221-34.805,51.521-36.293,59.081" transform="translate(147 1028)" fill="#f6855d"/>
    <path id="path472" d="M691.594-491.619s-43.924,47.667-61.627,111c0,0,3.745,18.725,59.584,24.516,0,0,16-47.668,29.791-71.5,0,0,10.724,46.985,34.216,71.5,0,0,35.069-4.088,57.2-19.411L762.072-483.445l-70.477-8.173" transform="translate(147 1028)" fill="#2c2f78"/>
    <path id="path474" d="M729.833-395.5c5.563,13.547,13.415,28.637,23.725,39.4a178.647,178.647,0,0,0,28.305-6.208,153.09,153.09,0,0,0-15.727.311c-15.505,1.227-20.416-20.26-20.416-20.26,9.719-2.371,38.177-18.092,50.653-25.14l-5.167-11.451c-3.336.644-6.864,1.281-7.879,1.439-2,.307-15.351.612-18.547,1.687S737.277-403.45,732.826-399a32.2,32.2,0,0,0-2.993,3.5" transform="translate(147 1028)" fill="#24275f"/>
    <path id="path476" d="M833.1-271.854s-1.856-8.36-10.933,7.34-19.775,30.972-9.532,25.393,44.953-27.515,45.271-33.484-8.316-10.593-8.316-10.593-11.9,12.488-16.489,11.344" transform="translate(147 1028)" fill="#16203b"/>
    <path id="path478" d="M583.577-281.462s6.385-5.7-11.747-5.955-36.684-2.132-26.811,4.085,45.964,25.789,51.325,23.151,5.183-12.431,5.183-12.431-16.711-4.289-17.951-8.851" transform="translate(147 1028)" fill="#16203b"/>
    <path id="path480" d="M722.542-478.1c-5.272-3.347-23.879-10.368-30.993-13.468-.551.6-6.531,7.2-14.761,18.341,6.591,4.543,17.785,11.2,27.335,11.6,0,0-2.384,24.711,3.107,40.831,0,0-3.873,11.205-12.163,29.777s-4.3,28.091-13.969,29.32c-6.984.885-21.257.648-36.336-5.392,8.777,4.38,22.708,8.692,44.791,10.981,0,0,16-47.668,29.791-71.5,0,0,1.633,7.132,5,17.273,2.76-7.577,4.952-13.528,4.952-13.528S743.11-462.7,742.19-463.389s-13.2-10.617-19.648-14.712" transform="translate(147 1028)" fill="#24275f"/>
    <path id="path482" d="M842.655-478.035l-8.365-18.593a16.8,16.8,0,0,1-.391-12.928,16.78,16.78,0,0,1,8.868-9.416,16.771,16.771,0,0,1,12.924-.389,16.774,16.774,0,0,1,9.417,8.865l8.365,18.589-1.7.767-8.367-18.592a14.936,14.936,0,0,0-8.376-7.891,14.947,14.947,0,0,0-11.5.349,15.052,15.052,0,0,0-7.541,19.883l8.364,18.588-1.7.768" transform="translate(147 1028)" fill="#fff"/>
    <path id="path484" d="M816.327-471.408,829.6-481.949l61.99-28.067-8.7,17.449-64.177,21.525" transform="translate(147 1028)" fill="#dcd7c8"/>
    <path id="path486" d="M928.664-424.575l3.223-5.308,7.881-2.365-48.176-77.768-6.245,7.891,43.317,77.55" transform="translate(147 1028)" fill="#dcd7c8"/>
    <path id="path488" d="M928.664-424.575l-83.7,37.047-28.633-83.88,69.02-30.717,43.317,77.55" transform="translate(147 1028)" fill="#f5f2eb"/>
    <path id="path490" d="M825.439-444.711l9.693,28.4q20.084,7.69,40.183,15.352l30.215-13.371-80.091-30.377" transform="translate(147 1028)" fill="#dabc7d"/>
    <path id="path492" d="M894.68-485.416l-9.333-16.709-15.975,7.111Z" transform="translate(147 1028)" fill="#dabc7d"/>
    <path id="path494" d="M843.246-483.387l-26.919,11.979.667,1.955,109.88,41.677-16.931-30.311-66.7-25.3" transform="translate(147 1028)" fill="#dabc7d"/>
    <path id="path496" d="M866.414-488.421a3.3,3.3,0,0,0,2.668,3.827,3.305,3.305,0,0,0,3.832-2.668,3.308,3.308,0,0,0-2.676-3.831,3.3,3.3,0,0,0-3.824,2.672" transform="translate(147 1028)" fill="#fff"/>
    <path id="path498" d="M837.294-475.317a3.3,3.3,0,0,0,2.669,3.831,3.307,3.307,0,0,0,3.829-2.672,3.3,3.3,0,0,0-2.672-3.828,3.3,3.3,0,0,0-3.827,2.669" transform="translate(147 1028)" fill="#fff"/>
    <path id="path500" d="M925.57-441.532,895.154-494l.849-.491,30.419,52.464-.852.493" transform="translate(147 1028)" fill="#151513"/>
    <path id="path502" d="M841.814-462.96l-.471-.864,30.811-16.709.465.863L841.814-462.96" transform="translate(147 1028)" fill="#151513"/>
    <path id="path504" d="M839.691-474.359l-8.364-18.585a16.921,16.921,0,0,1,8.475-22.345,16.918,16.918,0,0,1,22.345,8.473l8.364,18.591-1.7.764-8.367-18.589a15.049,15.049,0,0,0-19.88-7.54,15.057,15.057,0,0,0-7.54,19.883l8.365,18.585-1.7.764" transform="translate(147 1028)" fill="#fff"/>
    <path id="path506" d="M844.051-534.289s7.671,15.351,9.86,18.6,1.611,5.432-2.187,4.749-1.783,3.528-5.084,2.5-1.911,3.731-4.483,3.089c-3.827-.948-3.381.82-4.968.955s-2.612-12.793-2.612-12.793-2.295-1.656-.507-5.037-13.66-16.685-13.66-16.685l23.64,4.625" transform="translate(147 1028)" fill="#f8a47d"/>
    <path id="path508" d="M751.53-634.1s27.793,24.741,32.721,34.253,41.768,75.793,41.768,75.793l22.389-9.323s-28.592-61.756-48.885-88.869-29.612-35.028-29.612-35.028L751.53-634.1" transform="translate(147 1028)" fill="#f798bb"/>
    <path id="path510" d="M705.338-754.426s22.475-30.585,37.681-14.623c6.863,7.2,15.148,6.592,22.141,5.983,8.507-.741,15.1-1.481,14.907,11.825-.177,11.885,7.109,9.137,14.8,6.389,8.007-2.86,16.455-5.72,17.395,7.909,1.845,26.728,43.859,24.844,39.641,54.725s-47.42,21.295-35.456,55.283c6.949,19.731-19.156,10.38-45.539,1.028-19.06-6.755-38.265-13.511-45.257-9.3-8.769,5.281-9.637-5.8-10.931-16.876-1.164-9.983-2.675-19.965-10.619-17.979-16.767,4.193-30.977-3.708-19.767-20.653s-20.208-52.042,21-63.712" transform="translate(147 1028)" fill="#141b2d"/>
    <path id="path512" d="M702.67-696.477c.795,1.816,2.621,2.777,4.081,2.141s2-2.636,1.2-4.456-2.625-2.78-4.087-2.14-1.993,2.632-1.195,4.455" transform="translate(147 1028)" fill="#abaaa9" fill-rule="evenodd"/>
    <path id="path514" d="M703.113-695.974c1.08,2.092,2.219,4.155,3.313,6.237a1.424,1.424,0,0,0,.9.8l.128.029a1.04,1.04,0,0,0,.589-.2l.089-.057.076-.067.163-.153.144-.312a1.781,1.781,0,0,0-.265-1.077c-.572-1.029-1.092-2.091-1.692-3.108-.343-.591-.288-.863.272-1.361,1.045-.927.148-2.676-.081-3.1-2.087-3.9-5.009-.3-3.632,2.368" transform="translate(147 1028)" fill="#e7e6e5" fill-rule="evenodd"/>
    <path id="path516" d="M704.045-697.26a.42.42,0,0,1-.189.56.427.427,0,0,1-.561-.2.42.42,0,0,1,.2-.557.408.408,0,0,1,.553.193" transform="translate(147 1028)" fill="#fff"/>
    <path id="path518" d="M704.57-694.425a.406.406,0,0,0,.551.193.412.412,0,0,0,.2-.557l-.66-1.375a.42.42,0,0,0-.559-.192.414.414,0,0,0-.2.555l.669,1.376" transform="translate(147 1028)" fill="#fff"/>
    <path id="path520" d="M732.376-658.12s3.508-4.664-3-24.284c0,0-16.936,3.564-23.467-14.277-4.644-12.7-7.073-30.16.217-42.123,4.956,6.1,20.208,25.552,35.031,22.653,15.568-3.044,17.149,7.7,3.107,14.127-6.115,2.8,4.831,14.179,13.995,8.521-1.517,10.267,9.492,31.281,9.492,31.281s-3.516,21.091-18.967,23.121c-9.6,1.263-16.411-19.02-16.411-19.02" transform="translate(147 1028)" fill="#f8a47d"/>
    <path id="path522" d="M712.682-747.758s21-12.539,46.576,18.089c0,0-3.793-35.861-40.1-27.849l-6.475,9.76" transform="translate(147 1028)" fill="#fabdc9"/>
    <path id="path524" d="M749.244-714.349q.326,2.954.652,5.9c-.611.732-1.36.691-1.709-.105q-.286-2.568-.58-5.141c.149-.781.593-.96,1.637-.655" transform="translate(147 1028)" fill="#abaaa9" fill-rule="evenodd"/>
    <path id="path526" d="M747.606-713.694q.294,2.574.58,5.141a3.752,3.752,0,0,1-.58-5.141" transform="translate(147 1028)" fill="#555658" fill-rule="evenodd"/>
    <path id="path528" d="M751.926-700.445l.111-2.757.3.176a1.284,1.284,0,0,0,1.025-.123l.091-.1-.111,2.859a.648.648,0,0,1-.26.575l-.081.085c-.424-.3-.236.029-.312.028a.879.879,0,0,1-.477-.18l-.075-.055a.72.72,0,0,1-.209-.509" transform="translate(147 1028)" fill="#abaaa9"/>
    <path id="path530" d="M751.268-707.752c-.047-.684-.249-.989-.961-.74a1.976,1.976,0,0,1-.411.044q-.33-2.952-.652-5.9a2.979,2.979,0,0,1,3.7,2.915c.26,2.341.516,4.684.8,7.016a1.436,1.436,0,0,1-.287,1.171l-.091.1a1.284,1.284,0,0,1-1.025.123l-.3-.176a1.8,1.8,0,0,1-.392-1.033c-.115-1.175-.295-2.341-.377-3.516" transform="translate(147 1028)" fill="#e7e6e5"/>
    <path id="path532" d="M709.56-686.313c.349-.1.272-.1.335-.149a.8.8,0,0,0,.343-.48l.037-.1c4.316,5.119,13.357,13.095,25.511,9.328,13.495-4.193,16.057-15.679,16.381-22.172a.891.891,0,0,0,.515.18c.08,0-.105-.321.319-.025l.081-.085c-.335,6.719-3.032,18.563-17,22.9-12.491,3.873-21.905-4.148-26.408-9.427l-.105.039-.012-.008" transform="translate(147 1028)" fill="#e7e6e5"/>
    <path id="path534" d="M707.45-688.9l.32-.06a1.539,1.539,0,0,0,.6-.416l.055-.093.093-.223,1.648,2.215a.686.686,0,0,1,.135.429v.092a.732.732,0,0,1-.276.467l-.215.108-.027,0a.7.7,0,0,1-.744-.255l-1.717-2.3.128.029" transform="translate(147 1028)" fill="#abaaa9"/>
    <path id="path536" d="M736.8-677.369a1.252,1.252,0,0,0,1.687.547l1.14-.495a1.259,1.259,0,0,0,.545-1.688,1.25,1.25,0,0,0-1.68-.545l-1.14.5a1.254,1.254,0,0,0-.552,1.681" transform="translate(147 1028)" fill="#e7e6e5" fill-rule="evenodd"/>
    <path id="path538" d="M751.29-712.35a.422.422,0,0,0,.477.341.415.415,0,0,0,.343-.488.412.412,0,0,0-.477-.335.415.415,0,0,0-.343.481" transform="translate(147 1028)" fill="#fff"/>
    <path id="path540" d="M752.522-709.742a.423.423,0,0,1-.344.483.418.418,0,0,1-.48-.336l-.264-1.509a.421.421,0,0,1,.341-.484.415.415,0,0,1,.48.341l.267,1.505" transform="translate(147 1028)" fill="#fff"/>
    <path id="path542" d="M745.026-702.249a2.047,2.047,0,0,0,2.047,2.049,2.05,2.05,0,0,0,2.048-2.049,2.048,2.048,0,0,0-2.048-2.047,2.045,2.045,0,0,0-2.047,2.047" transform="translate(147 1028)" fill="#fde6c5"/>
    <path id="path544" d="M747.771-669.769a16.046,16.046,0,0,1-8.767,5.7c-5.617,1.277-14.384,7.489-20.513,18.131s-16.117,17.224-12.259,34.359,5.789,48.8-13.279,84.212-24.173,43.581-24.173,43.581S721.9-447.695,769.9-471.531l-4.084-117.121s-4.765-34.728-4.765-36.089,2.383-19.749,2.383-19.749l-15.663-25.279" transform="translate(147 1028)" fill="#171f3d"/>
    <path id="path546" d="M771.265-663.045s-10.153-13.288-23.493-6.724-22.641,29.533-23.663,38.559-11.407,50.842-10.272,76.946S691.594-441.68,726.548-383.12c0,0,77.174-11.348,95.788-58.56,0,0-36.289-23.621-45.851-69.458s0-79.9,3.177-98.508-.908-39.837-8.4-53.4" transform="translate(147 1028)" fill="#f798bb"/>
    <path id="path548" d="M800.515-584.849s1.872-21.612-6.809-32.683-24.595-11.956-26.219.165,6.3,24.173,6.3,24.173l17.024,9.875,9.7-1.531" transform="translate(147 1028)" fill="#171f3d"/>
    <path id="path550" d="M756.855-514.043c-18.739-6.148-31.647-18.708-38.364-37.332-13.492-37.393,2.225-87.854,13.221-105.337,6.333-10.076,13.251-15.613,20.553-16.464a18.144,18.144,0,0,1,14.007,4.643l-.955.968a17.1,17.1,0,0,0-12.915-4.257c-6.867.805-13.441,6.133-19.54,15.836-10.876,17.293-26.429,67.189-13.093,104.15,6.568,18.212,19.187,30.491,37.507,36.5l-.421,1.292" transform="translate(147 1028)" fill="#712c30"/>
    <path id="path552" d="M652.754-557.068,634.31-545.491s-19.492.164-22.86,1.912-12.927,18.177-11.041,18.985,14.945-9.964,18.983-9.56,8.348,3.1,4.849,5.791-5.655,5.789,1.751,2.152,6.7-7.163,14.108-11.6,21.676-9.021,21.676-9.021l-9.021-10.232" transform="translate(147 1028)" fill="#f8a47d"/>
    <path id="path554" d="M734.153-645.51s-20.089,31.323-28.713,37.677-68.321,53.115-68.321,53.115l12.711,20.655s56.52-37.905,80.126-62.19,29.96-34.731,29.96-34.731L734.153-645.51" transform="translate(147 1028)" fill="#f798bb"/>
    <path id="path556" d="M761.2-698.5s-9.785,2.7-4.42,21.4,15.807,18.093,11.815,31.6,12.6,22.971,29.784,28.519c0,0,10.676-27.287,9.635-28.519s-5.012-18.9-7.325-21.119-14.595-21.687-14.595-21.687L761.2-698.5" transform="translate(147 1028)" fill="#141b2d"/>
    <path id="path558" d="M747.956-708.516l-.025,0a.266.266,0,0,1-.243-.292,1.227,1.227,0,0,0-.292-1.068,1.531,1.531,0,0,0-1.161-.229.268.268,0,0,1-.308-.172.271.271,0,0,1,.123-.328,2.214,2.214,0,0,0,1.225-1.4,2.018,2.018,0,0,0-.351-1.457l.051-.376.376.049a2.518,2.518,0,0,1,.453,1.887,2.323,2.323,0,0,1-.783,1.277,1.537,1.537,0,0,1,.732.348,1.712,1.712,0,0,1,.471,1.523.27.27,0,0,1-.268.247" transform="translate(147 1028)" fill="#141723"/>
    <path id="path560" d="M694.625-723.677q6.256,1.982,12.512,3.96a27.486,27.486,0,0,1,3.836,1.217c2.74,1.377,3.152,4.509,2.259,7.185a.194.194,0,0,0,.371.115c.875-2.612.611-5.293-1.617-7.1a9.581,9.581,0,0,0-3.313-1.34q-6.964-2.2-13.929-4.4a.194.194,0,0,0-.117.369" transform="translate(147 1028)" fill="#fff"/>
    <path id="path562" d="M735.765-700.748q.166-.53.335-1.06l.145.141c-.16.307-.321.612-.48.919" transform="translate(147 1028)" fill="#f9aa8d"/>
    <path id="path564" d="M732.954-707.27c11.26-.6,9.56,8.552.076,8.837-9.195.269-10.339-8.291-.076-8.837" transform="translate(147 1028)" fill="#e57d57"/>
    <path id="path566" d="M705.861-696.822c7.537-1.461,8.137-9.155-2.216-8.6l-.327.023a76.74,76.74,0,0,0,2.543,8.579" transform="translate(147 1028)" fill="#e57d57"/>
    <path id="path568" d="M725.3-721.729a9.189,9.189,0,0,1,11.2-.692s-5.988-5.193-11.2.692" transform="translate(147 1028)" fill="#241d2f"/>
    <path id="path570" d="M723.93-724.2c.533.763,2.2-.093,4.319-.948a12.1,12.1,0,0,1,6.132-1.168c4.509.683,6.065,3.073,6.724,2.8s-3.307-4.644-9.251-4.437-8.88,2.391-7.924,3.756" transform="translate(147 1028)" fill="#241d2f"/>
    <path id="path572" d="M711.976-724.265c-.891,1.085-.753.144-4.1.009a6.694,6.694,0,0,0-3.595.771c.185-.567.391-1.117.609-1.663,4.764-2.143,7.964-.189,7.087.883" transform="translate(147 1028)" fill="#241d2f"/>
    <path id="path574" d="M703.093-719.809s2.78-2.595,6.085-1.245c0,0-4.555-2.224-6.085,1.245" transform="translate(147 1028)" fill="#241d2f"/>
    <path id="path576" d="M738.37-715.97s-2.485-5.076-7.2-4.736-6.124,1.133-8.116,4.324c0,0-.288-2.82,4.155-5.007s9.223-.477,10.589,1.231,2.6,1.091,3.212.2c0,0,.869,2.5-2.64,3.987" transform="translate(147 1028)" fill="#241d2f"/>
    <path id="path578" d="M712.729-716.882a4.4,4.4,0,0,0-4.581-2.312,6.017,6.017,0,0,0-5.043,2.932l-.012.612a2.223,2.223,0,0,1-2.117-2.6,1.662,1.662,0,0,0,2.324-.479,5.7,5.7,0,0,1,9.429,1.843" transform="translate(147 1028)" fill="#241d2f"/>
    <path id="path580" d="M738.106-715.858q-.2,0-.408,0a7.431,7.431,0,0,0-1.683-1.9l.565-.661a10.624,10.624,0,0,1,1.789,2.452h0c.016.037.032.075.047.111-.1,0-.208,0-.312,0" transform="translate(147 1028)" fill="#151823"/>
    <path id="path582" d="M738.957-711.144a8.544,8.544,0,0,0-1.259-4.719q.2,0,.408,0c.1,0,.208,0,.312,0a7.508,7.508,0,0,1,.539,4.717" transform="translate(147 1028)" fill="#c47e5f"/>
    <path id="path584" d="M727.256-719q-.558-.308-1.111-.636a11.981,11.981,0,0,1,4.6-1.033l-1.087,1.2a9.75,9.75,0,0,0-2.4.472m6.252-.069a9.646,9.646,0,0,0-2.307-.409l1.109-1.2a6.2,6.2,0,0,1,2.072.621l-.875.988" transform="translate(147 1028)" fill="#151823"/>
    <path id="path586" d="M722.749-715.349h0a6.783,6.783,0,0,1,.308-1.037v0a8.231,8.231,0,0,1,3.091-3.259q.552.328,1.111.636a7.919,7.919,0,0,0-4.507,3.656" transform="translate(147 1028)" fill="#c47e5f"/>
    <path id="path588" d="M738.37-715.97a10.627,10.627,0,0,0-1.789-2.452l.1-.121a8.58,8.58,0,0,1,1.687,2.572h0m-15.316-.412v0a6.613,6.613,0,0,1,4.177-3.887,10.7,10.7,0,0,1,2.232-.5,11.815,11.815,0,0,1,1.4-.087h.048l-.169.187a11.981,11.981,0,0,0-4.6,1.033,8.231,8.231,0,0,0-3.091,3.259m11.328-3.68a6.2,6.2,0,0,0-2.072-.621l.059-.064a7.918,7.918,0,0,1,2.076.615l-.063.071" transform="translate(147 1028)" fill="#1f1823"/>
    <path id="path590" d="M732.846-716.31a2.592,2.592,0,0,1-5.18,0c-.027-.5-.807-.5-.777,0a3.369,3.369,0,0,0,6.735,0c.028-.5-.749-.5-.777,0" transform="translate(147 1028)" fill="#100f0d"/>
    <path id="path592" d="M719.88-698.448a2.592,2.592,0,0,1-5.181,0c-.028-.5-.805-.5-.779,0a3.371,3.371,0,0,0,6.739,0c.025-.5-.753-.5-.779,0" transform="translate(147 1028)" fill="#100f0d"/>
    <path id="path594" d="M710.79-716.31a2.592,2.592,0,0,1-5.181,0c-.025-.5-.8-.5-.777,0a3.371,3.371,0,0,0,6.737,0c.027-.5-.752-.5-.779,0" transform="translate(147 1028)" fill="#100f0d"/>
    <path id="path596" d="M697.4-709.884c-.211-.249-.409-.508-.595-.773l4.857-5.3q.05.692.117,1.384l-4.38,4.689" transform="translate(147 1028)" fill="#363d59"/>
    <path id="path598" d="M701.776-714.573q-.066-.692-.117-1.384l.147-.159a2.262,2.262,0,0,0,1,.435l-1.033,1.108m1.324-1.419.005-.271a5.663,5.663,0,0,1,2.277-2.173l-2.283,2.444m2.351-4.1.112-.121.124.039c-.08.027-.159.053-.236.083m.933-.272-.531-.167.807-.88a5.092,5.092,0,0,1,.559-.031,5.136,5.136,0,0,1,.9.08l-.815.872a6.238,6.238,0,0,0-.919.125" transform="translate(147 1028)" fill="#fab799"/>
    <path id="path600" d="M705.686-720.177l-.124-.039.291-.317.531.167a7.019,7.019,0,0,0-.7.189" transform="translate(147 1028)" fill="#fff"/>
    <path id="path602" d="M708.181-721.433a7.764,7.764,0,0,0-1.251-.276l1.841-2.008h1.543l-2.133,2.284" transform="translate(147 1028)" fill="#fab799"/>
    <path id="path604" d="M708.117-721.364a5.136,5.136,0,0,0-.9-.08,5.092,5.092,0,0,0-.559.031l.271-.3a7.784,7.784,0,0,1,1.251.276l-.064.069" transform="translate(147 1028)" fill="#4a4259"/>
    <path id="path606" d="M702.809-715.681a2.264,2.264,0,0,1-1-.435l3.645-3.979c.077-.029.156-.056.236-.083a7.019,7.019,0,0,1,.7-.189,6.221,6.221,0,0,1,.919-.125l-1.92,2.056a5.664,5.664,0,0,0-2.277,2.173l-.005.271-.291.311" transform="translate(147 1028)" fill="#4a4259"/>
    <path id="path608" d="M701.537-706.88a9.421,9.421,0,0,1-1.62-.819,10.93,10.93,0,0,1-.943-.665l3.121-3.485q.254,1.824.6,3.621l-1.161,1.348" transform="translate(147 1028)" fill="#363d59"/>
    <path id="path610" d="M702.7-708.228q-.346-1.794-.6-3.621l2.967-3.312a3.172,3.172,0,0,0,1.971,1.912l-4.335,5.021m4.877-5.651a2.464,2.464,0,0,1-1.907-1.96l3.024-3.376c.1,0,.191,0,.283.008a11.3,11.3,0,0,1,2,.707c.139.071.272.144.4.223l-3.8,4.4" transform="translate(147 1028)" fill="#fab799"/>
    <path id="path612" d="M711.372-718.277c-.127-.079-.26-.152-.4-.223a11.286,11.286,0,0,0-2-.707,4.586,4.586,0,0,1,2.477.835l-.081.095" transform="translate(147 1028)" fill="#fff"/>
    <path id="path614" d="M711.635-718.582a5.4,5.4,0,0,0-2.109-1.563l3.2-3.572H715.6l.056.068v.411l-4.019,4.656" transform="translate(147 1028)" fill="#fab799"/>
    <path id="path616" d="M711.453-718.372a4.585,4.585,0,0,0-2.477-.835c-.092-.005-.187-.008-.283-.008l.833-.931a5.4,5.4,0,0,1,2.109,1.563l-.183.211" transform="translate(147 1028)" fill="#4a4259"/>
    <path id="path618" d="M707.033-713.249a3.172,3.172,0,0,1-1.971-1.912l.607-.677a2.465,2.465,0,0,0,1.907,1.96l-.543.629" transform="translate(147 1028)" fill="#2e2d2d"/>
    <path id="path620" d="M721.532-709.025q-.314-.4-.591-.841l5.959-6.568a.412.412,0,0,0-.011.124,3.849,3.849,0,0,0,.255,1.215l-5.612,6.071" transform="translate(147 1028)" fill="#fab799"/>
    <path id="path622" d="M729.657-717.814c-.355-.156-.708-.321-1.059-.493l1.061-1.169c.264-.019.537-.029.82-.029.137,0,.277,0,.419.008.1,0,.2.008.3.015l-1.544,1.669" transform="translate(147 1028)" fill="#363d59"/>
    <path id="path624" d="M727.746-715.748a3.211,3.211,0,0,1-.08-.563.393.393,0,0,0-.411-.376.423.423,0,0,0-.153.028l1.5-1.649q.526.258,1.059.493l-1.911,2.067" transform="translate(147 1028)" fill="#fab799"/>
    <path id="path626" d="M733.729-722.22a10.806,10.806,0,0,0-1.416-.183l1.181-1.3a10.223,10.223,0,0,1,1.236.4l-1,1.083m1.163-1.257c-.152-.08-.313-.161-.484-.24h.707l-.223.24" transform="translate(147 1028)" fill="#363d59"/>
    <path id="path628" d="M734.73-723.3a10.23,10.23,0,0,0-1.236-.4l.012-.012h.9c.171.079.332.16.484.24l-.161.175" transform="translate(147 1028)" fill="#4a4259"/>
    <path id="path630" d="M732.369-720.748a9.663,9.663,0,0,0-1.453-.113l1.4-1.541a10.806,10.806,0,0,1,1.416.183l-1.36,1.472" transform="translate(147 1028)" fill="#4a4259"/>
    <path id="path632" d="M729.66-719.477l1.087-1.2.424-.032c.153-.012.3-.017.451-.017a5.834,5.834,0,0,1,.689.04l-1.109,1.2c-.1-.007-.2-.012-.3-.015-.141-.005-.281-.008-.419-.008-.283,0-.556.011-.82.029" transform="translate(147 1028)" fill="#35394f"/>
    <path id="path634" d="M730.746-720.674l.169-.187a9.663,9.663,0,0,1,1.453.113l-.059.064a5.822,5.822,0,0,0-.689-.04c-.148,0-.3.005-.451.017l-.424.032" transform="translate(147 1028)" fill="#463d50"/>
    <path id="path636" d="M727.144-715.1a3.85,3.85,0,0,1-.255-1.215.41.41,0,0,1,.011-.124l.2-.224a.423.423,0,0,1,.153-.028.393.393,0,0,1,.411.376,3.211,3.211,0,0,0,.08.563l-.6.652" transform="translate(147 1028)" fill="#2e2d2d"/>
    <path id="path638" d="M734.68-716.2q-.534-.1-1.068-.239a.348.348,0,0,0-.355-.251.434.434,0,0,0-.263.087q-.658-.186-1.313-.413l1.827-2.061a7.619,7.619,0,0,1,2.508,1.313L734.68-716.2" transform="translate(147 1028)" fill="#363d59"/>
    <path id="path640" d="M725.824-705.83l-.131-.035a3.148,3.148,0,0,1-.441-.127,11.3,11.3,0,0,1-2.116-1.381l5.419-6.113a3.529,3.529,0,0,0,1.7.431,3.283,3.283,0,0,0,3.368-3.255.374.374,0,0,0-.012-.125q.534.134,1.068.239l-8.856,10.367m4.432-7.977a2.721,2.721,0,0,1-1.181-.265l2.607-2.94q.654.226,1.313.413a.379.379,0,0,0-.148.289,2.526,2.526,0,0,1-2.591,2.5" transform="translate(147 1028)" fill="#fab799"/>
    <path id="path642" d="M737.929-720c-.043-.051-.087-.1-.131-.157a5.486,5.486,0,0,0-2.059-1.436l.743-.836.016.009-.015-.012,1.139-1.284h2.829a2.464,2.464,0,0,0,.267.148l.125.156L737.929-720" transform="translate(147 1028)" fill="#363d59"/>
    <path id="path644" d="M736.5-722.421l-.016-.009v0l.015.012" transform="translate(147 1028)" fill="#4a4259"/>
    <path id="path646" d="M740.718-723.569a2.46,2.46,0,0,1-.267-.148h.149l.117.148" transform="translate(147 1028)" fill="#4a4259"/>
    <path id="path648" d="M736.685-718.544a7.336,7.336,0,0,0-2.24-1.589l1.295-1.461a5.486,5.486,0,0,1,2.059,1.436c.044.055.088.107.131.157l-1.244,1.457" transform="translate(147 1028)" fill="#4a4259"/>
    <path id="path650" d="M736.016-717.761a7.619,7.619,0,0,0-2.508-1.313l.875-.988a8.218,8.218,0,0,1,2.2,1.64l-.565.661" transform="translate(147 1028)" fill="#35394f"/>
    <path id="path652" d="M736.581-718.422a8.219,8.219,0,0,0-2.2-1.64l.063-.071a7.335,7.335,0,0,1,2.24,1.589l-.1.121" transform="translate(147 1028)" fill="#463d50"/>
    <path id="path654" d="M730.256-713.056a3.529,3.529,0,0,1-1.7-.431l.52-.587a2.722,2.722,0,0,0,1.181.265,2.526,2.526,0,0,0,2.591-2.5.379.379,0,0,1,.148-.289.434.434,0,0,1,.263-.087.348.348,0,0,1,.355.251.374.374,0,0,1,.012.125,3.283,3.283,0,0,1-3.368,3.255" transform="translate(147 1028)" fill="#2e2d2d"/>
    <path id="path656" d="M694.9-723.5a.48.48,0,0,0-.06-.271,1.014,1.014,0,0,0,.377.051h20.436v6.325c0,3.325-1,6.547-3.667,8.725a10.468,10.468,0,0,1-12.071.968,10.628,10.628,0,0,1-5.016-9.167V-723.5m-.256,8.772a10.894,10.894,0,0,0,10.632,8.933c5.092-.108,9.853-3.741,10.633-8.933.451-3,.161-6.179.161-9.2l-.052-.132-.011-.013-.015-.011-.132-.051H694.694l-.209.207c0,2.973-.407,6.267.16,9.2" transform="translate(147 1028)" fill="#fff"/>
    <path id="path658" d="M742.091-723.926c0,3.233.3,6.616-.149,9.824-.788,5.673-5.959,9.7-11.524,9.805a11.784,11.784,0,0,1-11.447-9.363,24.922,24.922,0,0,1-.228-5.305v-4.961l.205-.207h22.937a.208.208,0,0,1,0,.416H719.049c-.22,0,.108-.349.108-.051v5.125c0,2.845.016,5.488,1.4,8.1a11.37,11.37,0,0,0,10.327,5.819,11.366,11.366,0,0,0,9.795-6.593c1.067-2.224,1-4.624,1-7.019v-5.593a.207.207,0,0,1,.415,0" transform="translate(147 1028)" fill="#fff"/>
    <path id="path660" d="M694.841-723.768h0" transform="translate(147 1028)" fill="#fff"/>
    <path id="path662" d="M716.02-724.058l-.011-.013.011.013" transform="translate(147 1028)" fill="#fff"/>
    <path id="path664" d="M716.009-724.072l-.015-.011.015.011" transform="translate(147 1028)" fill="#fff"/>
    <path id="path666" d="M715.994-724.082a.21.21,0,0,0-.34.156v.209H703.21c.011-.141.021-.277.033-.416h12.619l.132.051" transform="translate(147 1028)" fill="#fff"/>
    <path id="path668" d="M711.988-708.666c2.665-2.179,3.667-5.4,3.667-8.725v-6.325h.208a.21.21,0,0,0,.157-.341l.052.132c0,3.023.289,6.2-.161,9.2-.78,5.192-5.541,8.825-10.633,8.933a9.877,9.877,0,0,1-3.427-.539c.039-.131.077-.268.112-.4a10.684,10.684,0,0,0,10.025-1.932" transform="translate(147 1028)" fill="#fff"/>
    <path id="path670" d="M715.994-724.082l.015.011.011.013a.21.21,0,0,1-.157.341h-.208v-.209a.21.21,0,0,1,.34-.156" transform="translate(147 1028)" fill="#fff"/>
    <path id="path672" d="M718.949-723.717h-3.323a.208.208,0,0,1,0-.416h3.323a.208.208,0,0,1,0,.416" transform="translate(147 1028)" fill="#fff"/>
    <path id="path674" d="M718.949-721.884h-3.087a.208.208,0,0,1,0-.415h3.087a.207.207,0,0,1,0,.415" transform="translate(147 1028)" fill="#fff"/>
    <path id="path676" d="M714.786-705.166a2.227,2.227,0,0,1-2.045-3,2.055,2.055,0,0,1,.505-.7,2.6,2.6,0,0,0,2.416,1.508c.064,0,.128,0,.193-.005,1.877-.112,2.864-2.965,2.861-4.927,0-.044,0-.088,0-.131.039.852.132,5.6-2.419,6.856a3.413,3.413,0,0,1-1.509.4" transform="translate(147 1028)" fill="#e67a5e"/>
    <path id="path678" d="M715.856-707.361a2.616,2.616,0,0,1-2.776-3.227,1.429,1.429,0,0,1,.725-.883,1.321,1.321,0,0,1,1.709.356c.393.375.719.749,1.247.385.435-.3.076-2.237.5-3.04a.6.6,0,0,1,.731-.328c1.477.329.657,6.571-2.137,6.736" transform="translate(147 1028)" fill="#e27b2a"/>
    <path id="path680" d="M715.662-707.356a2.611,2.611,0,0,1-2.543-1.827,2.587,2.587,0,0,1-.107-.46,2.258,2.258,0,0,1-.024-.327,2.051,2.051,0,0,1,.091-.619c.135.58.324,2.219,2.012,2.219l.136,0c1.819-.093,2.529-1.463,2.619-3.941.055-1.352-.128-1.66-.3-1.66-.128,0-.252.163-.28.2a.579.579,0,0,1,.536-.352.875.875,0,0,1,.195.024c.485.108.723.852.724,1.809,0,1.961-.984,4.815-2.861,4.927-.065,0-.129.005-.193.005" transform="translate(147 1028)" fill="#c95e23"/>
    <path id="path682" d="M713.968-710.366a.569.569,0,0,1-.328-.1c-.375-.256-.283-.552.327-.863a.633.633,0,0,1,.293-.071c.364,0,.687.3.5.568a1.051,1.051,0,0,1-.795.467" transform="translate(147 1028)" fill="#edae74"/>
    <path id="path684" d="M714.816-729.471S722.746-716,739.138-715.89c0,0,10.357-10.98,10.592-11.388a3.407,3.407,0,0,0-2.656-4.095c-3.043-.921-10.861-2.353-13.451-2.867s-6.9-1.123-8.328-1.227-10.48,5.995-10.48,5.995" transform="translate(147 1028)" fill="#141b2d"/>
    <path id="path686" d="M666.976-451.495s-30,38.068-22.215,41.445,32.205-54.959,22.215-41.445" transform="translate(147 1028)" fill="#5e41a3"/>
    <path id="path688" d="M644.761-406.212s-5.415,3.991-5.339,7.292,5.373,3.759,7.368,1.3,1.236-10.744-2.029-8.595" transform="translate(147 1028)" fill="#5e41a3"/>
    <path id="path690" d="M759.27-630s-18.976,29.54-43.932,49.5l.364-2.811S747.186-612.136,759.27-630" transform="translate(147 1028)" fill="#e22a68"/>
    <path id="path692" d="M740.348-660.049s6.327-10.847,18.923-9.72a28.886,28.886,0,0,0-18.923,9.72" transform="translate(147 1028)" fill="#fff"/>
    <path id="path694" d="M713.282-475.439s-3.635,62.625,15.093,83.194-27.732-34.384-15.093-83.194" transform="translate(147 1028)" fill="#fff"/>
    <path id="path696" d="M813.718-441.366s-11.2,13.969-6.139,11.975,10.719-18.132,6.139-11.975" transform="translate(147 1028)" fill="#fff"/>
    <path id="path698" d="M804.279-425.248s4.529.233,2.3,2.3-6.14-3.452-2.3-2.3" transform="translate(147 1028)" fill="#fff"/>
    <path id="path700" d="M777-508.781c-.18-.777-.353-1.565-.519-2.357a197.285,197.285,0,0,1-2.556-65.241c1.811,1.545,5.457,4.639,10.225,8.575,1.807,14.681,4.143,40.117.276,47.593A51.55,51.55,0,0,1,777-508.781m6.957-60.569c-4.84-4.007-8.405-7.044-9.873-8.3.648-5.072,1.416-9.779,2.193-14.1l3.476,2.016c1.521,5.881,2.8,10.909,2.9,11.243.068.221.631,3.811,1.307,9.137" transform="translate(147 1028)" fill="#e3e2e0"/>
    <path id="path702" d="M784.154-567.805c-4.768-3.936-8.415-7.029-10.225-8.575.052-.427.1-.848.159-1.269,1.468,1.255,5.033,4.292,9.873,8.3q.094.75.193,1.545" transform="translate(147 1028)" fill="#9288cc"/>
    <path id="path704" d="M765.345-503.249a20.1,20.1,0,0,1-6.424-1.149c-4.392-1.48-6.865-6.039-8.08-11.924q2.9,1.258,6.015,2.28l.421-1.292a67.357,67.357,0,0,1-6.733-2.607c-2.257-13.861,1.656-33.733,4.007-39.127,3.479-7.981,2.172-10.985,5.365-34.52,2.087-15.38,5.721-23.769,7.988-27.736a12.748,12.748,0,0,0-.416,1.957c-1.621,12.12,6.3,24.173,6.3,24.173l2.493,1.447c-.777,4.319-1.545,9.025-2.193,14.1-.055.421-.107.843-.159,1.269a197.285,197.285,0,0,0,2.556,65.241c.165.792.339,1.58.519,2.357-3.105,3.337-6.835,5.532-11.659,5.532" transform="translate(147 1028)" fill="#da85a2"/>
    <path id="path706" d="M779.757-589.731l-3.476-2.016-2.493-1.447s-7.921-12.053-6.3-24.173a12.748,12.748,0,0,1,.416-1.957,16.789,16.789,0,0,1,2.02-2.963s3.887,12.893,4.5,13.3c.365.244,3.111,10.66,5.333,19.255" transform="translate(147 1028)" fill="#151d34"/>
    <path id="path708" d="M756.855-514.043q-3.116-1.022-6.015-2.28c-.109-.528-.208-1.069-.3-1.619a67.345,67.345,0,0,0,6.733,2.607l-.421,1.292" transform="translate(147 1028)" fill="#63282a"/>
    <path id="path710" d="M767.487-617.366S754.55-521.355,754.55-513.861s23.833,12.6,40.856-5.448,19.408-45.283,9.533-66.734-23.832-33.025-37.452-31.323" transform="translate(147 1028)" fill="#f03d7a"/>
    <path id="path712" d="M808.01-541.144c-8.928-8.495-22.332-8.311-23.815,2.767-1.432,10.715,4.577,21.353,5.995,23.689a41.322,41.322,0,0,0,5.216-4.621,55.551,55.551,0,0,0,12.6-21.835" transform="translate(147 1028)" fill="#171f3d"/>
    <path id="path714" d="M716.229-484.755c-3.559,0-7.3-1.644-11.187-4.912-26.864-22.621,32.491-181.8,35.031-188.569l.871.328c-.619,1.652-61.665,165.33-35.3,187.529,4.987,4.2,9.692,5.587,13.983,4.127,14.117-4.8,21.492-38.525,25.455-56.643.581-2.663,1.092-5,1.541-6.864,2.773-11.523,7.909-19.525,12.516-19.525h.087c2.113.048,4.96,1.792,6.527,9.848l-.916.177c-1.128-5.809-3.128-9.04-5.631-9.095-4.075-.063-9.032,7.821-11.677,18.812-.447,1.861-.956,4.187-1.537,6.845-4,18.295-11.449,52.353-26.064,57.325a11.474,11.474,0,0,1-3.7.615" transform="translate(147 1028)" fill="#e7e6e5"/>
    <path id="path716" d="M777.843-522.264l-12.651,1.989A5.426,5.426,0,0,1,759-524.8l-4.379-27.837a5.433,5.433,0,0,1,4.52-6.2l12.648-1.987a5.428,5.428,0,0,1,6.2,4.517l4.375,27.835a5.433,5.433,0,0,1-4.519,6.2" transform="translate(147 1028)" fill="#16182f"/>
    <path id="path718" d="M772.066-559.031a3.615,3.615,0,0,1,4.133,3.011l4.377,27.835a3.622,3.622,0,0,1-3.013,4.135l-12.651,1.987a3.62,3.62,0,0,1-4.136-3.011l-4.371-27.835a3.614,3.614,0,0,1,3.009-4.133l12.651-1.988" transform="translate(147 1028)" fill="#1c3053"/>
    <path id="path720" d="M769.891-548.613A2.636,2.636,0,0,1,767.7-545.6a2.638,2.638,0,0,1-3.016-2.2,2.638,2.638,0,0,1,2.2-3.013,2.634,2.634,0,0,1,3.011,2.193" transform="translate(147 1028)" fill="#fff"/>
    <path id="path722" d="M779.685-544.813l.212-.033a.647.647,0,0,1,.739.539l.723,4.613a.646.646,0,0,1-.537.739l-.212.035a.651.651,0,0,1-.739-.539l-.721-4.615a.646.646,0,0,1,.536-.739" transform="translate(147 1028)" fill="#16182f"/>
    <path id="path724" d="M778.93-549.608l.215-.031a.641.641,0,0,1,.736.536l.321,2.04a.651.651,0,0,1-.537.74l-.211.031a.649.649,0,0,1-.741-.536l-.32-2.041a.649.649,0,0,1,.537-.739" transform="translate(147 1028)" fill="#16182f"/>
    <path id="path726" d="M778.179-554.391l.211-.032a.655.655,0,0,1,.744.537l.317,2.045a.65.65,0,0,1-.536.736l-.216.032a.644.644,0,0,1-.735-.536l-.324-2.043a.652.652,0,0,1,.539-.74" transform="translate(147 1028)" fill="#16182f"/>
    <path id="path728" d="M756.361-534.064s16.988,2.548,26.968-6.483c0,0,3.136,22.528-4.189,25.859s-21.292,2.716-21.6,2.255.1-1.411-1.179-4.6,0-17.027,0-17.027" transform="translate(147 1028)" fill="#f03d7a"/>
    <path id="path730" d="M789.365-605.256s14.839,14.692,12.792,18.377-20.6-26.961-12.792-18.377" transform="translate(147 1028)" fill="#f798bb"/>
    <path id="path732" d="M805.175-583.3a1.373,1.373,0,0,1-1.413,1.329,1.373,1.373,0,0,1-1.412-1.329,1.374,1.374,0,0,1,1.412-1.331,1.374,1.374,0,0,1,1.413,1.331" transform="translate(147 1028)" fill="#f798bb"/>
    <path id="path734" d="M466.476-387.539v48.149H388.471v-48.149h78.005" transform="translate(147 1028)" fill="#f25347"/>
    <path id="path736" d="M411.815-387.539v48.149H388.471v-48.149h23.344" transform="translate(147 1028)" fill="#e84449"/>
    <path id="path738" d="M466.476-339.39h52.4v-80.093h-52.4v80.093" transform="translate(147 1028)" fill="#437ead"/>
    <path id="path740" d="M466.476-339.39h14.255v-80.093H466.476v80.093" transform="translate(147 1028)" fill="#2a629d"/>
    <path id="path742" d="M395.444-387.539h71.032v-80.8H395.444v80.8" transform="translate(147 1028)" fill="#fbcd5b"/>
    <path id="path744" d="M395.444-387.539h21.639v-80.8H395.444v80.8" transform="translate(147 1028)" fill="#f79a10"/>
    <path id="path746" d="M466.476-419.483H509.5V-460.54H466.476v41.057" transform="translate(147 1028)" fill="#3ab78c"/>
    <path id="path748" d="M466.476-419.483h14.255V-460.54H466.476v41.057" transform="translate(147 1028)" fill="#309a75"/>
    <path id="path750" d="M521.8-246.854a12.5,12.5,0,0,0,12.6,12.392,12.494,12.494,0,0,0,12.6-12.392,12.5,12.5,0,0,0-12.6-12.387,12.5,12.5,0,0,0-12.6,12.387" transform="translate(147 1028)" fill="#837dc6"/>
    <path id="path752" d="M363.264-246.854a12.5,12.5,0,0,0,12.6,12.392,12.5,12.5,0,0,0,12.6-12.392,12.5,12.5,0,0,0-12.6-12.387,12.5,12.5,0,0,0-12.6,12.387" transform="translate(147 1028)" fill="#837dc6"/>
    <path id="path754" d="M371.131-246.854a4.7,4.7,0,0,0,4.736,4.663,4.7,4.7,0,0,0,4.739-4.663,4.7,4.7,0,0,0-4.739-4.652,4.694,4.694,0,0,0-4.736,4.652" transform="translate(147 1028)" fill="#4050ab"/>
    <path id="path756" d="M529.671-246.854a4.7,4.7,0,0,0,4.737,4.663,4.7,4.7,0,0,0,4.735-4.663,4.7,4.7,0,0,0-4.735-4.652,4.7,4.7,0,0,0-4.737,4.652" transform="translate(147 1028)" fill="#4050ab"/>
    <path id="path758" d="M373.38-338.262v-14.667H524.875l-3.328,14.667Zm0-55.531v-17.58h164.75l-3.987,17.58Zm0,19.477V-391.9H533.713l-3.989,17.584Zm151.926,19.472H373.38v-17.569H529.295ZM375.5-430.855H542.551l-3.988,17.581H373.38v-17.012Zm171.465-19.473-3.987,17.579H382.69l66.4-17.579Zm.431-1.9H456.272l96.949-25.661Zm-178,18.941v98.942H524.737l33.8-149L369.4-433.291" transform="translate(147 1028)" fill="#2f3240"/>
    <path id="path760" d="M381.88-276.31A43.437,43.437,0,0,1,411.587-301.7l105.54-26.08,42.088-185.282a22.752,22.752,0,0,1,22.417-17.665h52.195v7.827H581.632a14.88,14.88,0,0,0-14.653,11.54L524.535-324.479l11.605,64.76-7.836,1.359-11-61.384L413.528-294.107a35.512,35.512,0,0,0-24.272,20.741l-6.605,15.989-7.379-2.944,6.608-15.989" transform="translate(147 1028)" fill="#4b516c"/>
    <path id="path762" d="M583.039-521.972h51.588a1,1,0,0,0,1.008-.992v-7.824a1,1,0,0,0-1.008-.989H583.039a1,1,0,0,0-1.009.989v7.824a1,1,0,0,0,1.009.992" transform="translate(147 1028)" fill="#4050ab"/>
    <path id="path764" d="M517.823-246.854h7.961a8.562,8.562,0,0,1,8.624-8.473,8.561,8.561,0,0,1,8.621,8.473h7.96a16.464,16.464,0,0,0-16.581-16.3,16.467,16.467,0,0,0-16.585,16.3" transform="translate(147 1028)" fill="#3b3f53"/>
    <path id="path766" d="M359.284-246.854h7.961a8.562,8.562,0,0,1,8.621-8.473,8.564,8.564,0,0,1,8.625,8.473h7.959a16.465,16.465,0,0,0-16.584-16.3,16.465,16.465,0,0,0-16.583,16.3" transform="translate(147 1028)" fill="#3b3f53"/>
  </g>
</svg>
